<?xml version="1.0" encoding="utf-8"?>
<!-- Generator: Adobe Illustrator 17.0.0, SVG Export Plug-In . SVG Version: 6.00 Build 0)  -->
<!DOCTYPE svg PUBLIC "-//W3C//DTD SVG 1.1//EN" "http://www.w3.org/Graphics/SVG/1.1/DTD/svg11.dtd">
<svg version="1.1" id="图层_1" xmlns="http://www.w3.org/2000/svg" xmlns:xlink="http://www.w3.org/1999/xlink" x="0px" y="0px"
	 width="1417.32px" height="1417.32px" viewBox="0 0 1417.32 1417.32" enable-background="new 0 0 1417.32 1417.32"
	 xml:space="preserve">
<g id="svgg">
	<path id="path0" fill="#040000" d="M554.479,481.955c-55.991,4.251-114.473,9.482-129.96,11.631
		c-73.032,10.137-102.49,14.94-110.466,18.021c-4.765,1.836-24.259,6.731-43.32,10.868c-19.061,4.142-38.555,9.13-43.32,11.09
		c-17.052,7.007-50.235,16.992-56.468,16.992c-3.493,0-6.346,1.949-6.346,4.332c0,2.383-3.785,4.332-8.409,4.332
		c-4.624,0-9.476,1.733-10.787,3.85c-1.31,2.123-7.478,5.133-13.705,6.698c-12.471,3.13-33.346,15.622-30.633,18.33
		c0.942,0.942,7.337-1.088,14.214-4.516c6.872-3.428,18.346-8.588,25.494-11.469c7.148-2.881,15.985-6.715,19.635-8.518
		c3.655-1.798,13.337-4.743,21.519-6.541s17.864-4.738,21.519-6.536c10.538-5.182,63.285-17.29,75.323-17.29
		c6.022,0,12.151-1.949,13.624-4.332c1.473-2.383,8.897-4.343,16.5-4.354c7.603-0.016,20.859-1.982,29.458-4.37
		c14.81-4.11,48.426-8.182,142.485-17.258c22.635-2.182,82.091-5.263,132.126-6.845c87.68-2.767,119.13-8.496,119.13-21.687
		C732.091,470.984,656.666,474.195,554.479,481.955 M1298.501,478.776c-4.17,3.076-7.581,7.814-7.581,10.527
		c0,2.718-1.949,4.938-4.332,4.938c-2.383,0-4.332,3.861-4.332,8.577c0,10.305-19.175,62.689-30.535,83.418
		c-2.263,4.137-4.121,10.473-4.121,14.079c0,3.606-1.949,6.558-4.332,6.558c-2.383,0-4.332,2.291-4.332,5.09
		c0,5.464-34.488,77.938-38.804,81.55c-1.424,1.191-6.243,10.451-10.711,20.577c-4.462,10.126-9.769,18.411-11.788,18.411
		c-2.025,0-3.677,2.751-3.677,6.108c0,17.073-59.711,67.536-79.915,67.536c-24.438,0-87.875-56.82-127.772-114.441
		c-3.433-4.96-7.337-9.996-8.675-11.187c-1.332-1.191-11.193-13.83-21.909-28.082c-39.096-52.011-47.284-57.962-58.552-42.551
		c-4.554,6.222-3.114,9.687,9.449,22.743c12.292,12.779,14.366,17.61,12.195,28.396c-8.653,42.979-4.419,205.77,5.355,205.77
		c16.575,0,17.62-6.325,15.276-92.607c-3.065-113.044-2.789-113.385,42.242-51.605c23.691,32.512,82.79,89.716,101.271,98.033
		c47.046,21.173,103.914-33.421,166.246-159.591c10.597-21.443,22.976-46.482,27.514-55.645c4.538-9.157,8.247-19.391,8.247-22.743
		c0-9.861,8.323-6.958,10.494,3.66c1.094,5.361,3.2,48.735,4.684,96.387c1.484,47.652,4.521,88.492,6.753,90.755
		c2.236,2.263,4.061,9.953,4.061,17.09c0,22.505,14.713,76.216,20.886,76.238c11.415,0.054,20.095-13.115,14.528-22.023
		c-2.8-4.489-5.09-12.931-5.09-18.763c0-5.832-1.976-15.812-4.397-22.169c-11.453-30.135-20.517-218.1-12.936-268.416
		C1310.793,489.709,1309.006,471.027,1298.501,478.776 M328.051,554.873c-12.054,9.487-12.834,13.5-20.615,106.15
		c-2.404,28.591-3.195,76.644-1.754,106.778l2.61,54.794l-22.239,4.771c-12.232,2.626-26.219,4.771-31.082,4.771
		c-9.428,0-25.006,15.633-25.245,25.337c-0.157,6.249,49.325,3.216,58.336-3.574c2.383-1.798,12.13-4.494,21.66-5.994
		c9.53-1.505,27.075-4.576,38.988-6.828c11.913-2.253,35.696-4.208,52.845-4.348c30.151-0.249,31.553-0.742,42.237-14.75
		c21.184-27.768,20.842-27.855-61.677-15.487c-26.29,3.942-37.196,4.094-40.71,0.579c-11.382-11.382-8.756-222.286,3.152-253.265
		C348.416,543.767,341.615,544.206,328.051,554.873 M740.755,619.87c-3.574,2.312-11.805,4.229-18.292,4.267
		c-36.151,0.2-103.004,53.403-103.004,81.967c0,4.706-2.134,9.877-4.744,11.491c-4.527,2.8-3.861,13.554,2.67,43.065
		c12.936,58.493,55.78,90.306,118.361,87.891c22.9-0.883,33.053-3.011,34.45-7.229c1.614-4.874-3.244-5.42-26.284-2.951
		c-18.541,1.987-29.252,1.435-31.131-1.603c-1.576-2.545-7.381-4.63-12.904-4.63c-5.523,0-12.471-2.924-15.438-6.498
		c-2.967-3.574-7.191-6.498-9.39-6.498c-4.879,0-22.359-17.084-26.604-26.003c-1.7-3.568-6.823-12.335-11.388-19.483
		c-18.054-28.272-12.547-60.036,15.086-87.014c13.207-12.899,26.853-23.452,30.324-23.452c3.466,0,6.303-1.489,6.303-3.309
		c0-16.754,80.223-24.129,110.466-10.153c52.964,24.476,60.794,84.94,15.205,117.397c-23.723,16.895-62.635-0.233-53.663-23.609
		c13.186-34.369-52.477-40.19-76.281-6.769c-23.149,32.517,8.821,63.908,43.212,42.432c6.704-4.186,9.617-4.186,13.803,0
		c7.511,7.511,65.922,6.888,80.916-0.861c31.618-16.353,44.695-89.802,21.422-120.316
		C823.161,630.873,759.919,607.486,740.755,619.87 M738.286,732.009c1.305,2.112-0.531,6.254-4.077,9.195
		c-3.547,2.946-6.449,7.148-6.449,9.335c0,7.197-16.559,21.936-21.33,18.99c-6.308-3.899-5.929-29.696,0.536-36.161
		C713.009,727.325,734.804,726.383,738.286,732.009"/>
	<path id="path1" fill="#040000" d="M705.065,471.314c5.388,1.034,13.186,0.996,17.328-0.087c4.143-1.088-0.265-1.933-9.796-1.884
		C703.067,469.392,699.677,470.275,705.065,471.314 M1298.555,473.036c-9.465,5.339-18.53,21.205-12.119,21.205
		c2.464,0,4.484-2.453,4.484-5.458c0-11.155,17.268-17.442,17.832-6.493c0.411,8.025,0.872,8.339,2.572,1.744
		C1314.102,473.237,1307.804,467.816,1298.555,473.036 M537.806,477.255c-49.753,3.168-79.644,8.859-41.447,7.895
		c41.603-1.051,157.371-11.328,127.431-11.312C605.922,473.843,567.226,475.381,537.806,477.255 M719.22,483.623
		c-14.306,10.099-18.335,10.646-82.308,11.155c-37.001,0.298-80.917,1.879-97.595,3.52c-16.678,1.641,13.538,2.106,67.146,1.04
		c98.77-1.971,112.231-4.115,125.39-19.971C739.418,470.248,737.014,471.06,719.22,483.623 M420.187,489.91l-19.494,3.032
		l21.66,0.585c11.913,0.32,24.584-1.305,28.158-3.617C458.125,484.987,451.843,484.987,420.187,489.91 M362.366,498.785
		c-28.017,4.7-32.587,10.148-5.079,6.049c26.295-3.915,47.766-9.915,34.743-9.709C387.264,495.2,373.916,496.846,362.366,498.785
		 M437.84,506.945c-3.796,2.404,7.9,2.989,30.324,1.516c20.073-1.31,37.309-3.103,38.3-3.975
		C510.515,500.94,443.542,503.339,437.84,506.945 M1272.168,523.553c-3.774,11.539-8.209,24.774-9.855,29.409
		c-1.906,5.366-1.505,6.85,1.105,4.094c5.545-5.87,20.398-49.704,17.74-52.363C1279.987,503.523,1275.942,512.008,1272.168,523.553
		 M272.953,517.017c-20.225,4.966-34.396,9.817-31.494,10.787c2.902,0.969,15.85-1.316,28.77-5.074
		c12.926-3.753,27.47-6.828,32.322-6.828s10.029-1.949,11.501-4.332C317.421,506.122,317.231,506.149,272.953,517.017
		 M355.488,516.486c-12.947,2.15-24.611,4.971-25.916,6.276c-2.534,2.54,33.995-1.522,62.457-6.942l17.328-3.303l-15.162,0.032
		C385.856,512.566,368.436,514.342,355.488,516.486 M292.219,529.174c-1.939,3.135,2.475,3.644,13.825,1.592
		c22.126-4.002,23.772-6.2,4.657-6.2C302.102,524.566,293.79,526.64,292.219,529.174 M1302.362,540.811
		c-3.438,20.815-2.637,129.137,1.078,146.205c1.559,7.148,2.794-26.479,2.745-74.727c-0.049-48.248-0.325-87.723-0.612-87.723
		C1305.286,524.566,1303.84,531.876,1302.362,540.811 M198.053,538.585c-13.765,4.868-24.297,9.579-23.409,10.467
		c2.198,2.193,47.408-12.043,52.553-16.548C233.337,527.127,226.292,528.594,198.053,538.585 M244.741,539.803l-17.328,5.908
		l17.328-2.464c18.281-2.599,36.616-9.947,23.826-9.552C264.993,533.804,254.271,536.555,244.741,539.803 M330.552,547.087
		c-5.225,2.513-10.532,7.267-11.794,10.559c-1.375,3.579,2.859,2.177,10.521-3.493c15.406-11.388,18.368-9.563,13.283,8.182
		c-4.419,15.4-11.171,91.107-7.836,87.858c1.224-1.191,4.419-21.66,7.099-45.486c2.68-23.826,5.328-47.008,5.881-51.518
		C348.936,543.134,343.083,541.049,330.552,547.087 M201.312,550.731c-1.825,2.957,1.44,3.493,9.492,1.56
		c16.597-3.991,18.167-6.065,4.592-6.065C209.18,546.226,202.845,548.251,201.312,550.731 M155.821,555.052
		c-5.318,3.363-5.074,4.05,1.451,4.105c4.31,0.032,6.709,1.89,5.334,4.121c-1.549,2.502,2.718,2.55,11.16,0.13
		c17.404-4.993,23.084-10.256,6.601-6.119c-7.505,1.884-13.505,1.262-15.265-1.581C163.234,552.686,159.931,552.453,155.821,555.052
		 M132.109,565.736l-12.996,6.124l12.557-2.621c8.252-1.717,11.594-1.056,9.742,1.944c-1.814,2.935,0.661,3.606,6.937,1.89
		c7.993-2.188,8.377-2.956,2.117-4.256c-4.197-0.872-6.52-3.39-5.16-5.594C148.419,558.193,147.91,558.29,132.109,565.736
		 M1254.201,569.429c-1.251,3.915-3.184,10.045-4.299,13.619c-1.115,3.574-1.067,6.498,0.108,6.498
		c3.314,0,11.106-22.586,8.642-25.044C1257.45,563.299,1255.446,565.519,1254.201,569.429 M312.612,574.925
		c-0.395,5.063-1.83,15.785-3.179,23.826c-2.009,11.945-1.565,13.218,2.421,6.964c2.686-4.207,4.115-14.929,3.184-23.826
		C314.107,572.997,313.013,569.862,312.612,574.925 M112.284,573.301c-4.18,13.662-2.745,15.357,9.433,11.112
		c15.574-5.431,16.57-9.807,1.365-5.994c-7.256,1.825-10.213,1.229-8.409-1.695c1.532-2.48,1.695-4.505,0.363-4.505
		C113.703,572.218,112.463,572.705,112.284,573.301 M1264.928,580.882c0,2.383,1.949,4.332,4.332,4.332
		c2.659,0,4.5,23.03,4.76,59.565c0.238,32.761,1.922,70.287,3.747,83.391c1.944,13.938,2.55-8.534,1.462-54.15
		c-1.018-42.887-2.745-82.362-3.828-87.723C1273.468,576.75,1264.928,572.337,1264.928,580.882 M92.314,588.463
		c-4.549,4.169-5.734,5.881-2.648,3.801c3.655-2.458,5.621-1.825,5.621,1.803c0,7.186,5.729,1.57,6.964-6.812
		C103.442,579.111,102.369,579.241,92.314,588.463 M874.961,604.811c-3.016,3.633-4.272,7.808-2.8,9.287
		c1.478,1.473,3.91-0.525,5.415-4.435c4.023-10.489,17.29-8.664,27.021,3.709c4.684,5.956,10.067,10.83,11.956,10.83
		s-2.166-5.848-9.016-12.996C893.778,596.845,883.284,594.782,874.961,604.811 M1247.719,621.716
		c-6.433,16.933-5.16,19.597,2.561,5.35c3.661-6.763,5.588-13.37,4.278-14.68C1253.248,611.076,1250.172,615.272,1247.719,621.716
		 M719.095,619.87c-10.613,3.401-10.57,3.477,2.166,3.834c7.148,0.2,15.92-1.522,19.494-3.834
		C748.965,614.563,735.66,614.563,719.095,619.87 M775.411,619.87c3.574,2.312,10.397,4.094,15.162,3.964l8.664-0.238l-8.664-3.726
		C777.621,614.303,766.802,614.303,775.411,619.87 M877.625,629.481c4.538,5.285,10.51,12.07,13.267,15.07
		c2.783,3.032,4.299,13.7,3.411,23.961l-1.603,18.503l4.749-18.238c4.679-17.978-9.974-47.463-24.156-48.594
		C871.138,620.01,873.087,624.196,877.625,629.481 M689.226,628.902c-5.707,2.28-9.292,5.236-7.965,6.563
		c1.327,1.327,7.944-0.59,14.707-4.251C709.576,623.839,705.433,622.42,689.226,628.902 M819.029,636.456
		c10.624,6.736,22.759,16.971,26.961,22.743c7.213,9.893,7.381,9.926,2.967,0.606c-4.846-10.218-36.725-35.604-44.723-35.604
		C801.745,624.202,808.4,629.714,819.029,636.456 M926.848,640.447c5.063,6.552,13.51,18.227,18.774,25.938
		c5.263,7.716,11.144,14.052,13.072,14.079c1.922,0.032-5.502-11.642-16.5-25.938c-10.998-14.296-21.026-25.992-22.272-25.992
		C918.671,628.534,921.785,633.895,926.848,640.447 M652.274,652.788c-11.225,8.572-19.386,16.613-18.135,17.864
		c1.256,1.256,7.727-2.8,14.377-9.005c6.655-6.211,15.996-14.187,20.761-17.729c4.765-3.547,7.484-6.509,6.038-6.585
		C673.869,637.257,663.505,644.21,652.274,652.788 M711.514,645.997c-5.361,2.155-9.747,4.819-9.747,5.919
		c0,2.393,26.171-4.787,29.469-8.085C734.799,640.268,722.371,641.633,711.514,645.997 M790.167,650.237
		c11.691,4.565,26.799,13.608,33.573,20.101s12.319,10.202,12.319,8.253c0-9.628-45.188-37.017-60.648-36.762
		C771.838,641.887,778.476,645.672,790.167,650.237 M1230.51,659.378c-5.117,9.817-8.404,18.747-7.31,19.846
		c1.099,1.099,5.42-5.469,9.595-14.599c4.18-9.13,8.361-18.059,9.292-19.846c0.931-1.787,0.801-3.249-0.292-3.249
		C1240.701,641.53,1235.622,649.56,1230.51,659.378 M301.696,668.605c-3.466,28.889-3.049,94.811,0.764,120.213
		c1.63,10.846,3-16.537,3.092-61.731C305.73,637.523,305.622,635.931,301.696,668.605 M1205.163,676.478
		c-5.393,9.368-8.285,16.987-6.428,16.927c3.574-0.114,19.857-30.346,17.572-32.631
		C1215.57,660.038,1210.556,667.105,1205.163,676.478 M656.162,683.117c-11.848,10.96-14.669,14.371-6.276,7.581
		c8.393-6.79,20.09-15.655,25.992-19.7c5.902-4.045,8.724-7.456,6.276-7.581S668.01,672.157,656.162,683.117 M622.811,685.933
		c-8.317,12.844-13.906,35.252-7.857,31.515c2.48-1.532,4.505-6.639,4.505-11.344c0-4.711,3.146-13.37,6.996-19.24
		c3.85-5.875,6.021-10.678,4.83-10.678C630.094,676.186,626.282,680.572,622.811,685.933 M855.229,705.524
		c-0.195,16.987,0.996,25.136,2.946,20.16c4.316-11.014,4.76-44.111,0.628-46.661C857.016,677.919,855.407,689.842,855.229,705.524
		 M920.014,682.478c-1.587,4.137-1.863,45.41-0.606,91.708c2.188,80.543,1.917,84.377-6.249,88.741
		c-10.862,5.816-10.207,7.012-15.676-28.624l-4.657-30.324l1.852,30.015c2.182,35.409,6.043,41.176,21.021,31.364l10.77-7.061
		l-2.561-86.846c-2.475-84.063-2.296-86.765,5.697-84.149c4.792,1.565,6.438,1.143,3.926-1.013
		c-2.383-2.036-5.751-5.426-7.478-7.527C924.319,676.662,921.606,678.336,920.014,682.478 M839.612,701.766
		c0.85,8.908-1.451,23.366-5.117,32.127c-3.661,8.767-5.68,15.936-4.489,15.936c9.054,0,19.526-57.166,11.388-62.191
		C839.563,686.507,838.762,692.864,839.612,701.766 M969.03,695.983c4.976,6.98,13.565,16.592,19.077,21.357
		c6.78,5.859,5.426,2.718-4.18-9.687C967.503,686.442,955.569,677.09,969.03,695.983 M1208.866,700.559
		c-5.101,8.637-8.355,16.624-7.229,17.745c1.121,1.126,6.114-5.946,11.09-15.704
		C1223.936,680.631,1221.408,679.299,1208.866,700.559 M949.141,712.986c7.695,10.711,17.967,22.895,22.835,27.075
		c4.863,4.18,0.639-2.886-9.384-15.709c-10.029-12.817-18.232-25.001-18.232-27.075c0-2.069-2.069-3.763-4.603-3.763
		C937.228,693.514,941.452,702.275,949.141,712.986 M1183.194,717.34c-4.922,8.339-7.424,15.162-5.561,15.162
		c1.857,0,6.639-6.823,10.614-15.162c3.974-8.339,6.476-15.162,5.561-15.162S1188.116,709.001,1183.194,717.34 M631.009,709.396
		c-3.975,3.98-3.655,52.444,0.363,54.924c1.787,1.105,3.249-11.447,3.249-27.898c0-16.451-0.162-29.913-0.363-29.913
		C634.064,706.51,632.601,707.809,631.009,709.396 M708.265,713.955c-10.684,2.605-23.214,13.424-28.943,24.996
		c-2.729,5.507-0.585,4.337,5.816-3.168c5.572-6.536,17.929-14.685,27.459-18.108C729.151,711.73,726.557,709.499,708.265,713.955
		 M751.109,716.452c4.348,3.184,8.334,12.758,9.206,22.099c2.101,22.602,6.433,25.299,6.433,4.007
		c0-16.359-9.482-31.716-19.581-31.716C745.114,710.842,746.885,713.365,751.109,716.452 M706.218,734.522
		c-2.897,3.493-4.597,8.188-3.78,10.429c0.823,2.242,4.998-0.617,9.276-6.352C720.016,727.477,715.094,723.827,706.218,734.522
		 M726.768,743.792c-4.121,8.085-5.583,14.702-3.249,14.702c2.334,0,4.24-2.285,4.24-5.074c0-2.789,3.049-8.447,6.78-12.568
		s5.193-8.453,3.249-9.628C735.844,730.049,730.889,735.702,726.768,743.792 M336.503,769.324
		c2.643,37.716,3.65,41.322,11.377,40.813c3.72-0.249,3.65-0.953-0.254-2.529c-3.054-1.229-5.523-10.056-5.664-20.236
		c-0.135-9.926-1.971-25.846-4.072-35.376C335.085,739.271,334.716,743.873,336.503,769.324 M1011.917,746.386
		c11.94,13.824,24.46,26.062,36.605,35.788c5.848,4.679-1.002-3.606-15.222-18.411
		C1008.176,737.597,995.255,727.098,1011.917,746.386 M1150.547,764.25c-11.659,14.702-16.797,22.835-11.415,18.07
		c12.666-11.214,36.346-41.073,34.245-43.179C1172.483,738.247,1162.211,749.548,1150.547,764.25 M1183.871,742.249
		c-2.28,2.978-9.552,13.213-16.158,22.743l-12.016,17.328l13.765-15.162c13.511-14.886,23.864-30.324,20.339-30.324
		C1188.815,736.834,1186.151,739.271,1183.871,742.249 M1311.004,764.689c1.338,16.51,4.077,34.055,6.092,38.988
		c4.115,10.083,0.915-23.506-4.928-51.681C1309.564,739.438,1309.245,742.931,1311.004,764.689 M842.357,756.138
		c-4.088,8.621-12.541,18.443-18.779,21.839c-6.238,3.39-9.341,6.238-6.893,6.336c12.103,0.471,42.004-34.954,35.225-41.733
		C850.75,741.415,846.451,747.518,842.357,756.138 M611.163,751.996c0.412,14.799,7.63,28.613,7.928,15.162
		c0.13-5.957-1.652-13.754-3.964-17.328C611.662,744.469,610.969,744.843,611.163,751.996 M990.116,763.606
		c20.528,22.223,51.074,51.118,52.52,49.677c1.603-1.603-59.82-63.453-63.014-63.453C978.398,749.83,983.12,756.03,990.116,763.606
		 M672.034,763.665c-0.758,14.956,13.559,25.331,33.947,24.611c15.043-0.536,14.994-0.59-3.216-3.552
		c-21.178-3.444-25.488-6.79-28.196-21.898C672.624,752.012,672.624,752.017,672.034,763.665 M770.527,768.241
		c6.579,8.393,32.907,10.473,37.548,2.973c1.928-3.124-2.193-3.661-12.79-1.673c-10.532,1.977-18.097,1.002-23.171-2.973
		C765.296,761.223,765.145,761.38,770.527,768.241 M1284.855,789.581c3.455,23.068,13.803,64.731,16.83,67.758
		c3.91,3.91,2.421-5.87-4.218-27.763c-3.552-11.696-6.476-28.461-6.498-37.255c-0.027-8.794-2.042-17.22-4.484-18.73
		C1283.567,771.788,1283.009,777.257,1284.855,789.581 M763.498,787.643c8.935,0.931,23.555,0.931,32.49,0
		c8.935-0.937,1.625-1.7-16.245-1.7C761.874,785.942,754.564,786.706,763.498,787.643 M1061.356,791.569
		c0.049,5.209,21.324,14.577,33.118,14.577c12.027,0,31.829-8.669,31.829-13.938c0-2.133-4.332-0.845-9.628,2.865
		c-12.427,8.702-31.169,8.594-44.674-0.255C1066.127,790.968,1061.34,789.506,1061.356,791.569 M649.783,794.704
		c0,4.462,21.785,25.759,24.043,23.501c1.023-1.023-3.969-7.446-11.09-14.268C655.61,797.114,649.783,792.955,649.783,794.704
		 M382,801.917c-12.666,1.841-24.362,4.706-25.992,6.363c-3.119,3.162,29.718-0.682,55.515-6.503
		C431.526,797.26,413.375,797.346,382,801.917 M643.285,818.887c12.417,13.732,48.231,33.611,52.634,29.209
		c1.153-1.153-4.576-4.299-12.725-6.991c-8.15-2.691-23.393-12.027-33.865-20.745l-19.039-15.855L643.285,818.887 M442.529,823.474
		c-5.28,7.148-8.02,12.996-6.076,12.996c1.939,0,6.98-5.848,11.204-12.996c4.218-7.148,6.958-12.996,6.081-12.996
		C452.861,810.478,447.814,816.326,442.529,823.474 M296.725,819.153c-4.765,2.063-16.175,4.982-25.353,6.482
		c-9.178,1.5-15.666,3.747-14.42,4.993c3.612,3.612,50.603-7.343,50.603-11.794C307.555,814.23,308.118,814.214,296.725,819.153
		 M1050.71,818.654c2.264,2.117,8.989,5.123,14.946,6.677l10.83,2.837l-10.83-6.525
		C1053.586,814.371,1044.093,812.471,1050.71,818.654 M1100.312,821.676c-14.187,5.81-14.328,6.049-2.166,3.698
		c7.148-1.381,14.848-4.327,17.111-6.541C1120.445,813.759,1118.956,814.046,1100.312,821.676 M1321.244,826.826
		c0,7.408,1.922,14.653,4.267,16.104c2.664,1.646,3.244-2.729,1.543-11.659C1323.405,812.119,1321.244,810.467,1321.244,826.826
		 M685.095,825.835c3.937,4.018,9.52,6.52,12.406,5.561c2.886-0.964-0.33-4.251-7.153-7.31
		C678.732,818.882,678.396,818.99,685.095,825.835 M232.33,842.681c-14.377,21.947,4.527,32.842,34.071,19.629
		c5.707-2.55,0.899-2.994-14.079-1.305c-24.785,2.805-29.03-1.744-15.552-16.64c3.958-4.37,6.173-8.973,4.922-10.224
		C240.441,832.891,236.228,836.735,232.33,842.681 M712.781,836.768c1.879,3.038,12.617,3.585,31.266,1.587
		c25.553-2.735,28.12-2.307,25.602,4.262c-1.657,4.31-1.051,6.216,1.478,4.651c14.588-9.011,3.081-15.13-28.461-15.13
		C720.536,832.138,710.848,833.638,712.781,836.768 M345.038,841.013c-11.55,1.939-22.12,4.641-23.485,6.005
		c-2.816,2.816,32.425-1.197,55.314-6.298C398.662,835.863,374.403,836.085,345.038,841.013 M288.099,853.733
		c-1.646,2.664,2.729,3.244,11.659,1.543c19.153-3.65,20.804-5.81,4.446-5.81C296.795,849.466,289.55,851.388,288.099,853.733
		 M715.846,852.623c8.935,0.931,23.555,0.931,32.49,0c8.935-0.937,1.625-1.7-16.245-1.7S706.912,851.686,715.846,852.623
		 M1321.244,862.159c0,2.22-4.386,4.879-9.747,5.908c-9.336,1.798-9.357,1.906-0.531,2.469c5.068,0.325,11.642-2.334,14.61-5.908
		c3.725-4.489,3.888-6.498,0.531-6.498C1323.432,858.13,1321.244,859.944,1321.244,862.159"/>
	<path id="path2" fill="#040000" d="M569.641,472.452c-11.913,1.565,11.48,1.966,51.984,0.899
		c40.504-1.072,74.456-2.659,75.447-3.525C700.083,467.199,592.85,469.408,569.641,472.452 M731.274,471.206
		c4.381,1.754,3.888,4.397-2.166,11.572l-7.846,9.298l9.747-8.252c11.68-9.893,12.509-15.698,2.166-15.232
		C728.225,468.813,727.564,469.722,731.274,471.206 M1309.748,508.553l-0.661,39.838l3.493-36.822
		c1.928-20.252,2.225-38.181,0.666-39.838C1311.687,470.074,1310.116,486.644,1309.748,508.553 M463.507,481.246
		c-17.723,2.756-18.119,3.06-4.332,3.363c8.339,0.179,23.934-1.235,34.656-3.141C519.796,476.849,493.057,476.654,463.507,481.246
		 M374.701,494.442c-6.038,2.74-3.411,3.13,8.664,1.289c9.53-1.451,18.14-3.352,19.131-4.229
		C406.222,488.22,383.018,490.679,374.701,494.442 M324.883,502.906c-14.805,3.114-14.859,3.2-2.166,3.455
		c7.148,0.146,16.895-1.408,21.66-3.455C354.795,498.427,346.148,498.427,324.883,502.906 M534.985,502.906l-30.324,2.8l25.992,0.2
		c14.296,0.108,40.613-1.18,58.482-2.865l32.49-3.065l-28.158,0.065C577.98,500.074,551.663,501.362,534.985,502.906
		 M414.772,514.629c5.361,1.029,14.133,1.029,19.494,0c5.361-1.034,0.975-1.879-9.747-1.879
		C413.797,512.75,409.411,513.595,414.772,514.629 M335.713,524.566c-11.794,3-11.994,3.325-2.166,3.514
		c5.956,0.114,14.729-1.468,19.494-3.514C363.725,519.974,353.75,519.974,335.713,524.566 M268.567,537.621
		c-4.57,3-2.004,3.433,8.664,1.478c18.682-3.428,22.207-5.892,8.301-5.805C279.776,533.333,272.141,535.276,268.567,537.621
		 M233.911,546.226c-8.924,2.859-9.303,3.531-2.166,3.834c4.765,0.2,11.588-1.522,15.162-3.834
		C254.499,541.32,249.23,541.32,233.911,546.226 M1256.99,554.668c-2.534,7.272-3.688,13.218-2.561,13.218
		c2.924,0,11.101-22.505,8.956-24.649C1262.399,542.256,1259.524,547.401,1256.99,554.668 M344.81,572.651
		c-1.587,9.926-2.041,18.898-1.007,19.933c1.034,1.034,3.244-6.184,4.906-16.034c1.662-9.85,2.117-18.823,1.007-19.933
		C348.606,555.507,346.397,562.725,344.81,572.651 M103.951,576.934c-7.191,5.886-7.922,7.359-2.166,4.381
		c14.128-7.299,21.963-13.299,17.328-13.267C116.73,568.064,109.907,572.066,103.951,576.934 M1305.497,609.04
		c0.011,23.826,0.742,33.021,1.619,20.431c0.877-12.59,0.866-32.084-0.022-43.32C1306.207,574.914,1305.487,585.214,1305.497,609.04
		 M83.157,590.412c-14.144,14.144,4.532,16.635,26.106,3.482c7.798-4.754,12.119-8.653,9.595-8.664
		c-2.523-0.011-8.372,2.848-12.996,6.346c-11.805,8.924-26.62,9.032-19.239,0.135C93.056,583.963,90.548,583.021,83.157,590.412
		 M1259.573,604.708c-8.767,23.647-6.254,25.694,3.985,3.249c4.077-8.935,8.166-17.707,9.081-19.494
		c0.921-1.787-0.016-3.249-2.085-3.249C1268.486,585.214,1263.547,593.986,1259.573,604.708 M888.044,596.937
		c3.574,1.305,11.371,6.514,17.328,11.572l10.83,9.195l-10.5-11.913c-5.778-6.552-13.575-11.761-17.328-11.572
		C882.526,594.511,882.477,594.901,888.044,596.937 M301.625,636.689c-1.668,19.971-2.171,37.174-1.115,38.225
		c2.708,2.713,8.404-61.796,6.07-68.776C305.524,602.969,303.293,616.718,301.625,636.689 M746.17,614.308
		c6.552,0.991,17.274,0.991,23.826,0c6.552-0.991,1.191-1.803-11.913-1.803S739.618,613.318,746.17,614.308 M338.886,632.866
		c0,8.339,0.888,11.751,1.976,7.581c1.094-4.17,1.094-10.992,0-15.162C339.774,621.115,338.886,624.527,338.886,632.866
		 M1218.094,643.907c-13.05,26.858-11.599,30.622,1.847,4.781c6.01-11.55,10.185-21.741,9.281-22.651
		C1228.317,625.133,1223.308,633.174,1218.094,643.907 M820.897,631.317c22.055,19.575,30.183,25.283,21.676,15.227
		c-4.722-5.583-12.503-12.157-17.296-14.61C820.486,629.481,818.515,629.205,820.897,631.317 M1243.972,639.548
		c-7.256,15.931-5.875,19.332,1.976,4.846c3.661-6.763,5.854-13.104,4.863-14.095
		C1249.82,629.308,1246.739,633.472,1243.972,639.548 M646.507,652.744c-7.76,6.114-16.175,15.352-18.703,20.528
		c-4.375,8.967-4.213,8.94,3.433-0.514c4.413-5.458,13.803-14.648,20.864-20.42C669.299,638.281,664.404,638.638,646.507,652.744
		 M729.276,644.844c-2.74,1.754,8.42,3.195,24.806,3.206c16.38,0.011,26.42-1.316,22.31-2.946
		C766.249,641.08,735.427,640.912,729.276,644.844 M335.15,693.514c0,25.017,0.715,35.252,1.592,22.743
		c0.872-12.509,0.872-32.977,0-45.486C335.864,658.262,335.15,668.496,335.15,693.514 M821.401,671.653
		c5.041,6.065,11.317,14.929,13.949,19.694c2.626,4.765,4.836,6.2,4.911,3.184c0.07-3.011-6.206-11.875-13.949-19.694
		C818.569,667.018,816.36,665.589,821.401,671.653 M961.688,680.518c7.549,9.53,14.696,17.328,15.888,17.328
		c1.191,0-4.007-7.798-11.556-17.328c-7.549-9.53-14.696-17.328-15.888-17.328C948.941,663.19,954.139,670.987,961.688,680.518
		 M889.863,751.996c-0.005,47.652,0.628,67.736,1.408,44.636c0.774-23.106,0.78-62.094,0.005-86.64
		C890.502,685.44,889.868,704.344,889.863,751.996 M1309.705,706.51c0,17.87,0.763,25.18,1.7,16.245
		c0.931-8.935,0.931-23.555,0-32.49C1310.468,681.33,1309.705,688.64,1309.705,706.51 M647.661,693.47
		c-6.823,7.121-11.577,13.64-10.559,14.485c1.018,0.845,7.402-4.982,14.193-12.947C666.618,677.014,664.344,676.056,647.661,693.47
		 M923.647,748.882l0.953,63.762l1.359-60.648l1.365-60.648l15.195,17.328l15.2,17.328l-12.097-18.194
		C924.14,675.487,922.597,678.363,923.647,748.882 M708.265,710.733c-5.258,2.193,1.159,2.686,16.31,1.251
		c20.469-1.939,26.723-0.888,34.656,5.827l9.682,8.193l-8.253-9.747C751.948,705.963,726.2,703.25,708.265,710.733 M995.163,721.672
		c15.341,20.052,68.061,71.478,73.27,71.478c1.938,0-3.623-5.897-12.368-13.099c-8.74-7.207-29.003-27.189-45.026-44.403
		C995.017,718.428,987.875,712.141,995.163,721.672 M834.202,721.98c-1.592,6.352-2.063,12.379-1.04,13.402
		c1.023,1.018,3.162-3.341,4.754-9.688c1.592-6.352,2.063-12.379,1.04-13.402C837.933,711.275,835.794,715.634,834.202,721.98
		 M1179.939,716.257c-14.913,25.299-15.882,27.459-8.29,18.411c8.799-10.484,16.386-23.826,13.543-23.826
		C1184.06,710.842,1181.694,713.279,1179.939,716.257 M1273.841,726.367c0.135,9.33,1.944,24.763,4.018,34.293
		c2.794,12.844,3.141,8.924,1.354-15.162C1276.592,710.268,1273.44,699.032,1273.841,726.367 M607.703,734.668
		c0.032,11.913,0.872,16.272,1.868,9.687c0.996-6.585,0.969-16.332-0.059-21.66C608.483,717.367,607.671,722.755,607.703,734.668
		 M855.862,730.644c-1.592,6.352-2.063,12.379-1.04,13.402c1.023,1.018,3.162-3.341,4.754-9.687
		c1.592-6.352,2.063-12.379,1.04-13.402C859.593,719.939,857.454,724.298,855.862,730.644 M767.365,745.714
		c-0.731,18.2,5.675,25.965,20.826,25.261c10.245-0.471,10.104-0.709-1.949-3.271c-11.171-2.377-13.364-5.193-15.628-20.068
		l-2.637-17.301L767.365,745.714 M974.158,749.164c7.256,9.162,16.624,19.397,20.821,22.743c4.191,3.346-0.915-4.153-11.344-16.662
		C961.753,729.009,954.518,724.368,974.158,749.164 M671.162,748.406c-2.421,6.363-3.834,14.491-3.141,18.059
		c0.688,3.563,3.422-1.641,6.07-11.572C679.506,734.565,677.833,730.856,671.162,748.406 M703.793,750.268
		c-3.747,11.81,4.478,20.799,12.054,13.169c4.343-4.375,3.785-4.836-2.816-2.323c-7.169,2.735-7.857,1.652-5.328-8.404
		C711.125,739.07,707.973,737.099,703.793,750.268 M818.147,754.33c-6.276,7.056-9.991,12.828-8.253,12.828
		c3.341,0,14.084-11.474,19.267-20.577C834.056,737.966,830.444,740.511,818.147,754.33 M636.787,765.344
		c0,10.142,31.023,47.327,45.486,54.524c4.765,2.372,2.063-1.072-6-7.646c-8.063-6.574-20.247-20.756-27.075-31.521
		C642.37,769.936,636.787,763.026,636.787,765.344 M1136.863,776.905l-12.725,14.079l14.079-12.725
		c13.126-11.859,16.072-15.433,12.725-15.433C1150.195,762.826,1143.859,769.161,1136.863,776.905 M1156.395,783.403l-14.929,16.245
		l16.245-14.929c8.935-8.209,16.245-15.519,16.245-16.245C1173.956,765.165,1170.29,768.284,1156.395,783.403 M823.063,780.679
		c-8.339,4.467-11.967,8.128-8.063,8.133c3.91,0,11.707-3.828,17.328-8.512C844.724,769.974,842.893,770.049,823.063,780.679
		 M300.705,794.054c1.294,18.644,0.433,20.761-9.947,24.568c-6.249,2.291-8.323,4.321-4.608,4.511
		c15.027,0.758,20.702-9.357,16.819-29.983l-3.671-19.494L300.705,794.054 M342.725,791.601
		c-0.569,14.989,5.713,19.624,18.98,14.014c7.684-3.244,7.446-3.547-2.074-2.648c-8.756,0.823-11.263-1.386-13.57-11.983
		l-2.827-12.996L342.725,791.601 M724.575,783.684c-3.179,2.02,0.747,3.401,9.682,3.401c8.935,0,12.861-1.381,9.682-3.401
		c-2.94-1.868-7.299-3.395-9.682-3.395C731.875,780.289,727.516,781.816,724.575,783.684 M1317.649,788.818
		c0.222,11.258,7.04,29.745,7.191,19.494c0.07-4.765-1.549-12.563-3.596-17.328C1318.964,785.677,1317.573,784.838,1317.649,788.818
		 M763.498,791.921c6.552,0.991,17.274,0.991,23.826,0c6.552-0.991,1.191-1.803-11.913-1.803S756.946,790.93,763.498,791.921
		 M392.029,797.65c-8.187,2.188-2.578,2.588,15.162,1.078c15.487-1.316,28.97-3.108,29.961-3.985
		C440.439,791.845,405.263,794.108,392.029,797.65 M449.428,796.02c7.397,2.984,6.801,14.88-1.327,26.49
		c-3.709,5.296-4.998,9.628-2.864,9.628c5.003,0,13.938-19.57,13.938-30.53c0-5.296-2.832-8.328-7.581-8.117
		C447.067,793.697,446.195,794.715,449.428,796.02 M627.197,803.98c2.453,4.765,10.002,13.532,16.776,19.478l12.308,10.814
		l-12.964-15.146C622.779,795.126,622.497,794.861,627.197,803.98 M1124.138,813.185c-7.787,6.628-9.384,9.265-3.975,6.579
		c7.938-3.948,22.835-18.205,18.584-17.794C1137.859,802.057,1131.286,807.104,1124.138,813.185 M249.073,827.806
		c-5.464,2.345-6.26,3.726-2.166,3.726c3.574,0,10.397-1.679,15.162-3.726c5.464-2.345,6.26-3.726,2.166-3.726
		C260.661,824.08,253.838,825.759,249.073,827.806 M1062.818,828.824c2.751,1.749,11.826,3.179,20.166,3.179
		c8.339,0,17.415-1.43,20.165-3.179c2.751-1.755-6.325-3.184-20.165-3.184C1069.143,825.64,1060.068,827.069,1062.818,828.824
		 M748.385,830.871c5.388,1.034,13.186,0.996,17.328-0.087c4.143-1.088-0.265-1.933-9.796-1.884
		C746.387,828.948,742.997,829.831,748.385,830.871 M775.753,837.336c-0.19,4.05-3.753,9.352-7.922,11.783
		c-4.17,2.426-5.383,4.473-2.697,4.549c7.148,0.189,15.79-11.68,13.196-18.135C776.89,831.954,775.975,832.593,775.753,837.336
		 M379.033,840.818c-7.375,1.884,1.998,2.339,21.66,1.051c19.061-1.251,35.468-2.978,36.459-3.839
		C440.493,835.143,392.164,837.461,379.033,840.818 M324.883,849.466c-8.707,2.789-9.13,3.493-2.166,3.596
		c4.765,0.07,12.563-1.549,17.328-3.596C351.086,844.722,339.693,844.722,324.883,849.466 M892.89,854.35
		c-0.612,13.543,10.456,24.866,17.458,17.864c3.26-3.26,2.296-4.413-3.281-3.931c-5.491,0.471-8.772-3.281-10.781-12.319
		C893.497,843.396,893.383,843.342,892.89,854.35 M1295.712,850.267c-2.984,19.229,19.196,32.16,30.205,17.61
		c4.884-6.449,4.83-6.774-0.336-2.166c-9.877,8.81-19.667,6.233-24.698-6.498C1298.29,852.661,1295.967,848.637,1295.712,850.267
		 M221.418,861.379c-0.433,8.334,1.538,9.655,13.575,9.097c12.709-0.585,12.947-0.823,2.431-2.426
		c-6.406-0.98-12.514-5.074-13.575-9.097C222.48,853.76,221.776,854.464,221.418,861.379 M724.57,856.906
		c6.585,0.996,16.332,0.969,21.66-0.06c5.328-1.029-0.06-1.841-11.973-1.809C722.344,855.07,717.985,855.91,724.57,856.906"/>
	<path id="path3" fill="#040000" d="M566.441,471.314c5.388,1.034,13.186,0.996,17.328-0.087c4.142-1.088-0.265-1.933-9.796-1.884
		C564.443,469.392,561.053,470.275,566.441,471.314 M1284.65,476.664c-4.186,4.624-6.926,10.429-6.086,12.899
		c0.839,2.464,4.846-1.321,8.908-8.415C1296.054,466.149,1295.279,464.919,1284.65,476.664 M510.076,475.717
		c7.743,0.958,20.415,0.958,28.158,0c7.744-0.964,1.408-1.749-14.079-1.749C508.668,473.968,502.333,474.753,510.076,475.717
		 M723.871,488.117c-12.92,9.178-19.813,10.527-56.316,11.025c-22.878,0.309-56.219,1.998-74.088,3.753
		c-19.207,1.884-2.377,2.296,41.154,1.013c73.779-2.182,89.136-5.236,101.564-20.209
		C743.549,474.823,741.584,475.527,723.871,488.117 M411.523,485.708c-4.543,3.022-0.628,3.471,12.996,1.495
		c24.265-3.525,27.725-5.978,8.301-5.892C424.681,481.348,415.097,483.325,411.523,485.708 M355.207,494.242
		c-14.805,3.114-14.859,3.2-2.166,3.455c7.148,0.146,16.895-1.408,21.66-3.455C385.119,489.763,376.472,489.763,355.207,494.242
		 M457.009,511.57l-17.328,3.103l17.328,0.184c9.53,0.097,22.202-1.381,28.158-3.287l10.83-3.471l-10.83,0.184
		C479.211,508.386,466.539,509.864,457.009,511.57 M252.1,515.842c-7.863,1.863-15.519,4.608-17.009,6.103
		c-3.661,3.661,25.293-1.966,33.476-6.509C276.321,511.136,271.469,511.256,252.1,515.842 M353.041,524.457
		c-5.231,2.182,1.635,2.686,17.328,1.262c14.296-1.289,26.804-3.054,27.795-3.915C401.857,518.593,361.38,520.975,353.041,524.457
		 M246.907,546.426c-4.744,3.211-2.995,3.612,6.498,1.489c15.931-3.563,19.386-6.043,8.301-5.957
		C257.141,541.997,250.481,544.005,246.907,546.426 M1309.992,611.206c0,36.93,0.666,52.038,1.478,33.573
		c0.812-18.465,0.812-48.681,0-67.146C1310.658,559.168,1309.992,574.275,1309.992,611.206 M210.085,554.89
		c-8.355,3.59-8.323,3.736,0.829,4.029c5.22,0.168,10.695-1.646,12.168-4.029C226.248,549.767,222.009,549.767,210.085,554.89
		 M125.611,561.388c-5.957,3.406-8.881,6.189-6.498,6.189c2.383,0,9.205-2.783,15.162-6.189c5.957-3.406,8.881-6.189,6.498-6.189
		C138.39,555.198,131.567,557.982,125.611,561.388 M1248.082,568.368c-2.67,7.657-4.094,14.675-3.168,15.606
		c0.926,0.926,3.866-4.581,6.536-12.238c2.669-7.657,4.094-14.675,3.168-15.606C1253.692,555.204,1250.752,560.711,1248.082,568.368
		 M306.109,570.772c-1.587,1.592-2.664,9.877-2.388,18.411l0.498,15.525l3.379-17.328
		C311.145,569.174,310.863,566.023,306.109,570.772 M85.041,585.528c-15.14,11.908-14.908,21.519,0.498,20.756
		c10.213-0.504,10.521-0.856,2.166-2.469c-12.877-2.48-12.298-7.31,2.166-18.102c6.552-4.89,10.716-8.951,9.249-9.027
		C97.653,576.609,91.317,580.589,85.041,585.528 M344.951,589.936c-1.505,7.532-2.475,22.705-2.15,33.725
		c0.46,15.801,1.305,13.169,3.98-12.444C350.366,576.885,349.521,567.073,344.951,589.936 M881.578,593.829
		c-1.57,2.54,0.368,3.124,4.765,1.435c5.334-2.047,13.001,3.206,27.303,18.698c10.938,11.848,17.019,17.539,13.521,12.644
		C905.632,596.488,887.838,583.697,881.578,593.829 M1268.432,597.127c-0.736,1.787-0.265,33.465,1.051,70.395l2.388,67.146
		l0.861-70.395C1273.505,600.896,1272.617,586.974,1268.432,597.127 M713.079,614.753c-1.202,1.955,3.552,2.708,10.576,1.673
		c7.023-1.029,12.769-2.626,12.769-3.547C736.423,609.581,715.229,611.281,713.079,614.753 M866.384,623.297
		c0,2.047,4.873,8.307,10.83,13.9c5.956,5.594,11.095,15.195,11.42,21.33c0.547,10.402,0.72,10.489,2.485,1.267
		c1.283-6.698-2.404-14.794-11.42-25.061C872.378,626.395,866.384,621.245,866.384,623.297 M339.178,667.522
		c0,13.104,0.812,18.465,1.803,11.913c0.991-6.552,0.991-17.274,0-23.826C339.991,649.057,339.178,654.417,339.178,667.522
		 M296.329,726.004c-0.005,40.504,0.65,57.659,1.451,38.116c0.796-19.537,0.801-52.677,0.005-73.644
		C296.99,669.514,296.335,685.5,296.329,726.004 M801.404,660.211c0,0.742,6.336,5.924,14.079,11.512l14.079,10.164l-10.5-11.512
		C810.089,660.536,801.404,655.538,801.404,660.211 M861.006,694.559c2.269,36.757,4.635,41.409,4.971,9.785
		c0.152-14.296-1.283-28.445-3.19-31.445C860.887,669.899,860.081,679.646,861.006,694.559 M651.678,694.597l-12.725,14.079
		l14.079-12.725c13.126-11.859,16.072-15.433,12.725-15.433C665.01,680.518,658.675,686.853,651.678,694.597 M927.032,762.826
		c0,38.918,0.883,69.875,1.96,68.792c2.989-2.989,3.59-133.994,0.628-136.956C928.196,693.238,927.032,723.908,927.032,762.826
		 M758.603,713.008c3.856,4.765,8.09,11.588,9.401,15.162c2.031,5.518,2.442,5.453,2.734-0.411
		c0.19-3.801-4.045-10.624-9.406-15.162C751.667,704.414,751.645,704.42,758.603,713.008 M1210.264,711.925
		c-14.913,25.299-15.882,27.459-8.29,18.411c8.799-10.483,16.386-23.826,13.543-23.826
		C1214.384,706.51,1212.018,708.947,1210.264,711.925 M632.823,741.166c0.135,3.574,1.917,10.397,3.964,15.162l3.726,8.664
		l0.238-8.664c0.13-4.765-1.652-11.588-3.964-15.162C633.056,735.388,632.612,735.388,632.823,741.166 M344.566,771.3
		c1.116,15.384,4.083,30.005,6.59,32.49c3.184,3.152,3.823,2.556,2.106-1.977c-1.348-3.574-4.316-18.194-6.59-32.49l-4.132-25.992
		L344.566,771.3 M716.193,752.359c-2.123,5.523-3.346,5.734-6.298,1.083c-2.805-4.424-3.677-4.002-3.731,1.803
		c-0.087,10.213,7.213,9.601,12.931-1.083c2.55-4.765,3.531-8.664,2.182-8.664C719.929,745.498,717.639,748.584,716.193,752.359
		 M1317.215,763.189c0.168,10.521,1.933,23.03,3.921,27.795c2.182,5.231,2.686-1.635,1.262-17.328
		C1319.565,742.357,1316.798,736.758,1317.215,763.189 M1133.744,772.649c-22.684,23.994-17.783,24.79,5.642,0.915
		c10.478-10.673,17.176-19.142,14.897-18.823C1151.998,755.055,1142.755,763.118,1133.744,772.649 M783.041,765.891
		c5.388,1.034,13.186,0.996,17.328-0.087c4.143-1.088-0.265-1.933-9.796-1.884C781.043,763.968,777.653,764.851,783.041,765.891
		 M1005.008,786.652c12.942,13.104,24.503,23.826,25.694,23.826c1.191,0-8.42-10.722-21.362-23.826
		c-12.942-13.104-24.503-23.826-25.694-23.826C982.454,762.826,992.066,773.547,1005.008,786.652 M832.968,778.854
		c-5.28,5.48-8.014,9.964-6.086,9.964c4.224,0,19.981-16.846,17.453-18.655C843.359,769.459,838.242,773.369,832.968,778.854
		 M1147.818,796.399l-23.68,24.909l24.909-23.68c23.144-21.996,26.891-26.138,23.68-26.138
		C1172.05,771.49,1160.841,782.699,1147.818,796.399 M1277.924,788.563c0,7.007,1.543,13.695,3.428,14.859
		c1.884,1.164,2.642-4.57,1.689-12.741C1280.919,772.475,1277.924,771.235,1277.924,788.563 M694.186,793.496
		c5.15,3,10.012,3,15.162,0c6.184-3.601,4.787-4.413-7.581-4.413C689.399,789.083,688.002,789.895,694.186,793.496 M752.268,794.233
		c1.099,1.787,12.487,3.249,25.31,3.249c12.823,0,24.221-1.462,25.326-3.249c1.105-1.787-10.283-3.249-25.304-3.249
		C762.572,790.984,751.174,792.446,752.268,794.233 M1085.513,798.814c4.202,2.35,10.559,2.35,15.828,0
		c7.267-3.244,6.032-3.931-7.018-3.931C1082.578,794.883,1080.303,795.895,1085.513,798.814 M642.056,825.851
		c8.859,9.173,16.998,15.785,18.097,14.691c1.094-1.094-6.151-8.604-16.104-16.684l-18.092-14.691L642.056,825.851 M270.733,819.142
		c-11.794,3-11.994,3.325-2.166,3.514c5.957,0.114,14.729-1.467,19.494-3.514C298.745,814.55,288.77,814.55,270.733,819.142
		 M720.178,830.789c4.17,1.094,10.992,1.094,15.162,0c4.169-1.088,0.758-1.977-7.581-1.977
		C719.42,828.813,716.009,829.701,720.178,830.789 M775.411,832.073c5.567,3.541,5.653,5.545,0.601,14.014
		c-5.577,9.341-5.491,9.482,1.673,2.632c8.085-7.733,6.043-20.956-3.222-20.848C770.592,827.92,770.879,829.187,775.411,832.073
		 M1289.231,838.636c3.563,15.931,6.043,19.386,5.957,8.301c-0.038-4.565-2.047-11.225-4.467-14.799
		C1287.509,827.394,1287.108,829.143,1289.231,838.636 M888.737,850.018c-0.46,10.44,1.852,17.713,6.888,21.66
		c6.601,5.177,6.926,5.106,2.518-0.569c-2.783-3.585-5.881-13.332-6.888-21.66l-1.825-15.146L888.737,850.018 M931.867,844.257
		c-0.276,5.475-5.865,15.005-12.417,21.183c-9.866,9.292-10.256,10.359-2.263,6.189c11.783-6.151,19.732-20.063,17.117-29.972
		C932.95,836.508,932.219,837.293,931.867,844.257 M340.045,849.498c-5.572,2.415-0.937,2.859,12.996,1.251
		c11.913-1.375,22.472-3.206,23.463-4.061C380.262,843.45,348.319,845.908,340.045,849.498 M218.148,855.964
		c-4.386,11.431,1.863,19.527,14.545,18.844l12.048-0.65l-12.357-1.847c-10.402-1.554-12.038-3.504-10.348-12.346
		C224.272,848.275,221.998,845.935,218.148,855.964 M296.725,858.13c-8.355,3.59-8.323,3.736,0.829,4.029
		c5.22,0.168,10.695-1.646,12.168-4.029C312.889,853.007,308.649,853.007,296.725,858.13 M711.92,859.148
		c6.585,4.186,40.753,4.234,43.309,0.065c1.099-1.787-9.325-3.249-23.16-3.249C718.229,855.964,709.164,857.393,711.92,859.148
		 M257.737,866.794c-11.989,3.049-12.157,3.341-2.166,3.753c5.956,0.244,13.754-1.44,17.328-3.753
		C280.274,862.029,276.462,862.029,257.737,866.794"/>
	<path id="path4" fill="#040000" d="M739.959,475.679c-3.114,16.158-28.635,27.205-63.74,27.579
		c-51.41,0.541-189.742,7.933-225.708,12.054c-17.87,2.047-53.933,6.092-80.142,8.983c-26.209,2.897-51.036,7.061-55.173,9.265
		c-4.137,2.199-10.96,3.985-15.162,3.964c-8.534-0.038-63.507,12.46-76.953,17.496c-4.765,1.787-21.335,6.725-36.822,10.982
		c-15.487,4.256-30.107,9.07-32.49,10.7c-2.383,1.63-14.079,6.574-25.992,10.987c-11.913,4.413-24.238,10.538-27.384,13.608
		c-7.814,7.614-26.766,7.18-26.766-0.607c0-15.113,100.914-67.46,130.047-67.46c4.716,0,8.577-1.727,8.577-3.839
		c0-3.991,4.63-5.263,52.71-14.469c15.888-3.043,30.346-6.991,32.133-8.772c1.782-1.781,8.475-3.244,14.87-3.244
		c6.395,0,17.279-1.911,24.189-4.245c12.628-4.272,47.966-9.845,112.194-17.68C568.374,466.327,742.369,463.165,739.959,475.679
		 M1314.789,599.293c0.033,105.121,1.576,140.471,7.792,178.695c15.086,92.699,14.599,97.47-9.872,97.47
		c-12.649,0-26.122-28.927-26.122-56.094c0-6.476-1.462-13.234-3.249-15.016c-6.054-6.049-13.597-82.395-13.841-140.075
		c-0.146-35.219-1.911-57.399-4.57-57.399c-2.383,0-4.332,2.783-4.332,6.184c0,3.395-6.818,20.453-15.157,37.905
		c-68.965,144.375-141.034,208.229-196.18,173.843c-24.384-15.205-109.232-106.854-109.232-117.993c0-2.55-2.106-4.635-4.679-4.635
		c-3.216,0-4.299,24.47-3.471,78.539c1.294,84.517-1.527,94.741-26.122,94.741c-16.678,0-17.712-6.964-17.712-119.244V647.372
		l-10.83-10.175c-13.819-12.985-13.754-26.068,0.195-39.172c14.929-14.025,28.434-3.498,69.117,53.901
		c4.765,6.72,10.613,14.442,12.996,17.16c2.383,2.713,15.617,18.888,29.409,35.945c100.096,123.787,138.251,117.468,213.4-35.344
		c7.029-14.296,14.241-26.642,16.028-27.438c1.787-0.791,3.249-4.316,3.249-7.83c0-3.509,4.424-14.556,9.828-24.546
		c5.404-9.991,13.521-29.371,18.032-43.071c4.511-13.7,9.834-24.909,11.832-24.909c1.993,0,3.628-3.487,3.628-7.749
		c0-28.163,22.006-65.895,38.436-65.895l11.382-0.005L1314.789,599.293 M350.859,555.973c-0.005,10.126-2.995,49.466-6.639,87.425
		c-4.76,49.52-5.431,75.209-2.393,90.972c2.328,12.075,5.518,32.322,7.088,44.993c2.366,19.099,4.072,22.543,9.985,20.138
		c3.926-1.587,28.093-3.948,53.706-5.236l46.569-2.345v15.021c0,26.414-10.803,31.721-82.308,40.45
		c-34.548,4.218-64.666,9.335-66.93,11.371c-2.263,2.031-9.704,3.698-16.532,3.698c-6.828,0-15.698,1.727-19.711,3.834
		c-31.342,16.467-64.866,7.711-53.116-13.873c11.372-20.875,17.626-25.18,46.423-31.932l29.723-6.975V732.94
		c0-129.034,6.818-173.009,29.252-188.724C343.505,531.935,350.875,535.417,350.859,555.973 M794.559,614.98
		c1.283,2.074,7.733,4.911,14.334,6.303c14.81,3.125,36.302,21.747,48.378,41.907c22.586,37.71-1.803,121.042-36.546,124.881
		c-7.056,0.774-14.675,3.211-16.938,5.415c-5.545,5.388-48.833,5.112-52.201-0.336c-3.487-5.642-30.719-5.583-41.322,0.092
		c-27.026,14.463-51.648-22.034-36.459-54.042c22.57-47.56,97.275-45.535,97.275,2.637v20.989h19.272
		c16.711,0,20.669-1.874,29.745-14.079c30.459-40.959,13.337-79.054-43.423-96.62c-21.113-6.53-79.238,2.193-79.238,11.897
		c0,1.922-2.437,3.509-5.415,3.525c-24.005,0.125-61.969,55.146-54.399,78.837c19.175,60.009,41.858,77.521,105.3,81.279
		c34.537,2.041,38.988,3.244,38.988,10.5c0,20.978-37.954,28.207-86.64,16.505c-36.551-8.783-73.4-40.109-78.837-67.027
		c-1.332-6.601-4.121-13.05-6.195-14.334c-7.771-4.803-4.213-66.285,4.863-84.079c14.561-28.537,55.775-62.532,82.221-67.823
		c7.31-1.462,14.339-4.354,15.622-6.428c1.283-2.074,19.646-3.774,40.807-3.774S793.276,612.906,794.559,614.98 M713.063,743.684
		c-4.744,12.352-2.762,16.635,3.731,8.058c3.498-4.624,6.422-9.872,6.498-11.659C723.546,734.029,715.706,736.79,713.063,743.684"/>
</g>
</svg>
