<?xml version="1.0" encoding="utf-8"?>
<!-- Generator: Adobe Illustrator 15.0.0, SVG Export Plug-In . SVG Version: 6.00 Build 0)  -->
<!DOCTYPE svg PUBLIC "-//W3C//DTD SVG 1.1//EN" "http://www.w3.org/Graphics/SVG/1.1/DTD/svg11.dtd">
<svg version="1.1" id="图层_1" xmlns="http://www.w3.org/2000/svg" xmlns:xlink="http://www.w3.org/1999/xlink" x="0px" y="0px"
	 width="800px" height="600px" viewBox="0 0 800 600" enable-background="new 0 0 800 600" xml:space="preserve">
<path fill="#00BFFE" d="M385.884,274.222c0.285-2.735,0.437-5.509,0.437-8.318c0-43.846-35.671-79.517-79.517-79.517
	c-43.846,0-79.517,35.671-79.517,79.517c0,43.846,35.671,79.518,79.517,79.518c2.809,0,5.583-0.15,8.318-0.437L216.106,444h28.285
	l160.978-160.979 M306.803,325.422c-32.818,0-59.517-26.699-59.517-59.518c0-32.818,26.699-59.517,59.517-59.517
	c32.818,0,59.517,26.699,59.517,59.517C366.32,298.723,339.621,325.422,306.803,325.422z"/>
<path fill="#00BFFE" d="M135.5,216.167"/>
<path fill="#00BFFE" d="M413.984,291.637c-13.045,16.098-20.875,36.586-20.875,58.874c0,51.648,42.02,93.668,93.668,93.668
	c14.123,0,27.522-3.147,39.544-8.771l-15.335-15.336c-7.588,2.647-15.729,4.105-24.209,4.105c-40.621,0-73.669-33.047-73.669-73.668
	c0-16.769,5.644-32.238,15.115-44.633L542.84,420.491l0.063-0.062l2.816,2.817c21.169-17.188,34.725-43.408,34.725-72.738
	c0-51.646-42.019-93.666-93.665-93.666c-22.173,0-42.566,7.749-58.627,20.674 M545.521,394.887L442.395,291.763
	c12.354-9.355,27.729-14.917,44.385-14.917c40.619,0,73.665,33.045,73.665,73.666C560.443,367.166,554.878,382.538,545.521,394.887z
	"/>
<g>
	<path fill="#00BFFE" d="M474.73,236.251l-22.828-22.824l-0.234,0.235l-2.51-2.51L223.51,436.801l-0.103-0.103L216.106,444h28.285
		l160.978-160.979l8.615,8.616l14.167-14.117l-8.642-8.64l29.781-29.781l11.587,11.585c1.68,3.812,5.488,6.482,9.913,6.482
		c5.974,0,10.834-4.86,10.834-10.834C481.625,241.749,478.76,237.832,474.73,236.251z"/>
</g>
</svg>
